<svg xmlns="http://www.w3.org/2000/svg" xmlns:xlink="http://www.w3.org/1999/xlink" aria-hidden="true" role="img" class="vite-logo" width="40" height="40" preserveAspectRatio="xMidYMid meet" viewBox="0 0 256 257">
  <title>Vite Framework Logo</title>
  <desc>A minimalistic logo representing Vite, a modern build tool</desc>
  <defs>
    <linearGradient id="gradient1" x1="0%" x2="60%" y1="10%" y2="80%">
      <stop offset="0%" stop-color="#44D1FF" />
      <stop offset="100%" stop-color="#BC34FE" />
    </linearGradient>
    <linearGradient id="gradient2" x1="50%" x2="55%" y1="5%" y2="90%">
      <stop offset="0%" stop-color="#FFE883" />
      <stop offset="10%" stop-color="#FFDD44" />
      <stop offset="100%" stop-color="#FFA900" />
    </linearGradient>
  </defs>
  <path fill="url(#gradient1)" d="M255 40L135 250c-2.5 4.4-9 4.4-11.5 0L1 40c-2.7-5 1.4-10.6 7-9.7l120 22a7 7 0 0 0 2.5 0l118-22c5.5-1 10 4.8 7 9.7Z" />
  <path fill="url(#gradient2)" d="M185 0L97 20a4 4 0 0 0-3 3L88 115a3 3 0 0 0 4 3l25-6c2-.5 4 1.5 4 4l-8 36a4 4 0 0 0 4 4l15-5c2-.5 4 1.5 4 4l-12 57c-1 3 4 5 6 2l2-2l73-145c1-2-1-5-4-4l-26 5c-2 0-4-2-4-4l17-58c1-2-1-5-4-4Z" />
</svg>
